<svg width="16" height="14" viewBox="0 0 16 14" fill="none" xmlns="http://www.w3.org/2000/svg">
<path d="M13.8918 2.09002C13.1603 1.29667 12.1566 0.859733 11.0654 0.859733C10.2497 0.859733 9.50273 1.11761 8.84511 1.62613C8.51328 1.88282 8.21261 2.19686 7.94751 2.5634C7.68252 2.19697 7.38174 1.88282 7.04981 1.62613C6.39229 1.11761 5.6453 0.859733 4.82963 0.859733C3.73842 0.859733 2.73463 1.29667 2.00316 2.09002C1.28042 2.8741 0.882294 3.94527 0.882294 5.10635C0.882294 6.30138 1.32764 7.3953 2.28378 8.54904C3.13912 9.58108 4.36844 10.6287 5.79202 11.8419C6.27812 12.2562 6.82912 12.7258 7.40125 13.226C7.5524 13.3584 7.74634 13.4313 7.94751 13.4313C8.14857 13.4313 8.34262 13.3584 8.49355 13.2262C9.06568 12.7259 9.61701 12.2561 10.1033 11.8416C11.5267 10.6286 12.756 9.58108 13.6114 8.54894C14.5675 7.3953 15.0127 6.30138 15.0127 5.10624C15.0127 3.94527 14.6146 2.8741 13.8918 2.09002Z" fill="black"/>
</svg>
