<svg width="10" height="15" viewBox="0 0 10 15" fill="none" xmlns="http://www.w3.org/2000/svg">
<path d="M4.86049 0.0869741C2.17573 0.0869741 -3.05176e-05 2.26334 -3.05176e-05 4.94811C-3.05176e-05 6.99466 2.82518 11.7105 4.16759 13.8359C4.31802 14.0735 4.57998 14.2174 4.86098 14.2174C5.1421 14.2168 5.40351 14.073 5.55349 13.8354C6.89633 11.7096 9.72111 6.99463 9.72111 4.94808C9.72108 2.26334 7.54532 0.0869741 4.86049 0.0869741ZM4.86049 7.91582C3.34217 7.91582 2.11128 6.68511 2.11128 5.16658C2.11128 3.64822 3.34214 2.41736 4.86049 2.41736C6.37885 2.41736 7.60971 3.64819 7.60971 5.16658C7.60971 6.68511 6.37888 7.91582 4.86049 7.91582Z" fill="black"/>
</svg>
