<svg width="12" height="14" viewBox="0 0 12 14" fill="none" xmlns="http://www.w3.org/2000/svg">
<path d="M9.83886 9.27529C9.37993 9.27529 8.9693 9.46699 8.65529 9.76733L4.34973 7.11544C4.37993 6.96846 4.40408 6.82149 4.40408 6.66813C4.40408 6.51477 4.37993 6.36779 4.34973 6.22082L8.60698 3.59449C8.93307 3.91399 9.36181 4.11209 9.83886 4.11209C10.8413 4.11209 11.6505 3.25581 11.6505 2.19506C11.6505 1.1343 10.8413 0.278026 9.83886 0.278026C8.83645 0.278026 8.02727 1.1343 8.02727 2.19506C8.02727 2.34842 8.05142 2.49539 8.08162 2.64236L3.82437 5.2687C3.49828 4.94919 3.06954 4.7511 2.59249 4.7511C1.59007 4.7511 0.780891 5.60737 0.780891 6.66813C0.780891 7.72889 1.59007 8.58516 2.59249 8.58516C3.06954 8.58516 3.49828 8.38707 3.82437 8.06756L8.12389 10.7258C8.09369 10.86 8.07558 11.0006 8.07558 11.1412C8.07558 12.17 8.86664 13.0071 9.83886 13.0071C10.8111 13.0071 11.6021 12.17 11.6021 11.1412C11.6021 10.1124 10.8111 9.27529 9.83886 9.27529Z" fill="black"/>
</svg>
